<svg xmlns="http://www.w3.org/2000/svg" width="42" height="47" fill="none"><g opacity=".95"><path fill="url(#d)" d="M38.742 9.405 23.65.676a6.354 6.354 0 0 0-5.704 0L2.852 9.405A6.308 6.308 0 0 0 0 14.336v17.458a6.33 6.33 0 0 0 2.852 4.945l15.093 8.729a6.354 6.354 0 0 0 5.704 0l15.093-8.73a6.323 6.323 0 0 0 2.852-4.944V14.336a6.317 6.317 0 0 0-2.852-4.931Zm-1.938 20.38a4.88 4.88 0 0 1-2.197 3.798l-11.627 6.72a4.854 4.854 0 0 1-4.38 0l-11.613-6.72a4.874 4.874 0 0 1-2.197-3.797V16.358a4.88 4.88 0 0 1 2.197-3.798l11.6-6.72a4.854 4.854 0 0 1 4.38 0l11.627 6.72a4.875 4.875 0 0 1 2.21 3.798v13.428Z"/></g><defs><linearGradient id="a" x1="23.344" x2="23.624" y1="39.382" y2="25.602" gradientUnits="userSpaceOnUse"><stop stop-color="#1D5B79"/><stop offset="1" stop-color="#1D5B79" stop-opacity=".75"/></linearGradient><linearGradient id="b" x1="15.318" x2="17.566" y1="32.733" y2="4.422" gradientUnits="userSpaceOnUse"><stop stop-color="#1D5B79"/><stop offset="1" stop-color="#8fd8fd" stop-opacity=".75"/></linearGradient><linearGradient id="c" x1="29.219" x2="31.59" y1="32.733" y2="4.443" gradientUnits="userSpaceOnUse"><stop stop-color="#1D5B79"/><stop offset="1" stop-color="#8fd8fd" stop-opacity=".75"/></linearGradient><linearGradient id="d" x1="25.326" x2="28.838" y1="54.13" y2="-10.93" gradientUnits="userSpaceOnUse"><stop stop-color="#1D5B79"/><stop offset="1" stop-color="#8fd8fd" stop-opacity=".75"/></linearGradient><linearGradient id="e" x1="22.07" x2="22.786" y1="30.508" y2="14.918" gradientUnits="userSpaceOnUse"><stop stop-color="#1D5B79"/><stop offset="1" stop-color="#1D5B79" stop-opacity=".75"/></linearGradient></defs></svg>